PathFileType	3	(X/Y/Z)	D:\minhoCalibration\240510\subject4_KPNP\preferred\preferred13.trc
DataRate	CameraRate	NumFrames	NumMarkers	Units	OrigDataRate	OrigDataStartFrame	OrigNumFrames
200.0	200.0	22	10	mm	200.0	524	86	
Frame#	Time	Left_Ankle_Outer1			Left_Ankle_Inner1			Left_Knee_Outer1			Left_Knee_Inner1			Left_Wrist1			Right_Wrist1			Right_Knee_Inner1			Right_Knee_Outer1			Right_Ankle_Inner1			Right_Ankle_Outer1			
		X1	Y1	Z1	X2	Y2	Z2	X3	Y3	Z3	X4	Y4	Z4	X5	Y5	Z5	X6	Y6	Z6	X7	Y7	Z7	X8	Y8	Z8	X9	Y9	Z9	X10	Y10	Z10	
524	2.61	-574.43781	400.97937	1489.7484	-511.56073	349.96191	1423.6733	-749.7077	620.41907	1066.9707	-646.57245	587.53076	1031.0139	-605.79303	1037.1589	1231.6504	-300.52631	917.34296	1373.8582	-380.41458	508.36163	1135.1145	-308.33932	510.66071	1220.0758	-545.43927	69.309166	1268.6674	-502.14642	76.62928	1305.1196
525	2.615	-579.43439	413.63589	1468.2496	-515.15454	362.60046	1403.3374	-744.91455	635.3009	1042.9971	-639.36749	602.91705	1009.6694	-600.62067	1044.5657	1223.6571	-302.05106	919.80847	1375.5808	-379.76831	509.92996	1136.7396	-308.34738	512.72363	1222.3809	-544.6496	70.74395	1268.6671	-501.65201	78.177696	1305.3481
526	2.62	-585.27563	426.68619	1446.9073	-518.72437	376.46881	1383.8103	-737.92896	650.19287	1019.4778	-631.49451	618.3504	988.54309	-595.7099	1052.4557	1216.1324	-303.52969	922.06238	1377.2802	-379.62354	511.42389	1138.4578	-308.70837	514.87653	1224.231	-543.86316	72.272781	1268.5562	-500.65543	79.188805	1305.0354
527	2.625	-592.2641	440.15891	1425.9296	-523.89801	389.28967	1364.3394	-729.85736	665.98615	996.19434	-622.80402	634.27368	967.9046	-590.32104	1060.0248	1208.7993	-305.20526	924.46204	1379.0414	-378.48758	513.31659	1139.255	-308.77582	517.08862	1226.2207	-543.17157	73.900612	1268.1931	-500.69989	80.948311	1305.0195
528	2.63	-599.90814	453.88593	1404.834	-529.66016	403.43695	1345.5547	-721.565	682.99554	972.93237	-613.53107	650.71436	948.24347	-584.83057	1067.6146	1201.8306	-307.02438	926.68231	1380.936	-377.88797	515.12561	1140.3101	-308.78894	519.23798	1228.1707	-543.59088	75.785721	1267.6099	-500.746	82.608955	1304.8741
529	2.635	-608.5838	468.01999	1383.8611	-535.8938	417.82004	1327.5931	-711.59552	700.42328	950.06689	-603.995	667.11865	929.70331	-579.15936	1075.1919	1195.1927	-308.95334	928.67932	1382.7213	-376.3653	516.65515	1140.6245	-308.69482	521.3396	1229.8376	-542.86096	77.612228	1266.6158	-500.65012	84.349846	1304.3701
530	2.64	-618.23877	482.57635	1363.0435	-544.00128	432.34497	1309.1725	-700.32098	718.45642	927.69202	-592.18945	683.98108	910.53064	-573.30969	1082.7849	1188.9016	-311.15268	930.47748	1384.6886	-375.41476	518.30756	1141.4237	-308.59344	523.36792	1231.5731	-542.716	79.425079	1265.2725	-500.62549	86.367943	1303.6384
531	2.645	-628.6864	497.56265	1341.8912	-552.14392	447.0213	1291.8237	-687.89832	736.9679	905.86707	-578.76819	701.48938	892.82074	-567.54163	1090.3246	1183.019	-313.71921	931.8999	1386.7192	-374.02292	519.97339	1142.1064	-308.07294	525.35468	1233.5543	-542.44006	81.520401	1263.9404	-501.0845	87.712494	1302.3666
532	2.65	-639.58014	512.64319	1320.7537	-561.91278	462.06357	1274.2803	-674.21802	756.06946	884.98389	-565.78534	718.71216	876.64197	-561.61444	1097.7582	1177.5295	-316.36826	932.88776	1388.6405	-371.16312	521.74902	1141.458	-307.92484	527.15619	1234.9167	-543.40118	83.629745	1261.9156	-502.08832	89.629784	1301.4828
533	2.655	-651.56732	528.45801	1299.1451	-572.81738	477.02802	1256.5496	-659.48517	775.51202	865.06268	-551.0979	735.90082	861.29449	-555.72839	1105.2135	1172.6349	-319.75467	933.46521	1391.0123	-368.6608	523.01105	1141.1154	-307.72595	528.78497	1236.3314	-542.99725	84.990005	1259.8438	-503.09241	91.579971	1300.1847
534	2.66	-663.93292	544.73547	1276.7697	-584.20386	492.32855	1238.97	-643.39868	795.35681	846.19958	-535.82129	752.89624	847.78021	-549.16687	1112.3931	1167.5441	-323.58447	934.20721	1392.249	-365.5676	524.38037	1140.4296	-307.59671	530.50433	1237.6256	-543.48108	87.549736	1257.9805	-504.44769	93.508484	1298.9529
535	2.665	-677.27728	561.94629	1254.1892	-597.05103	507.27039	1220.3546	-626.03693	815.07465	828.46045	-520.04932	769.59149	834.90417	-541.77032	1119.478	1162.2234	-328.11743	934.3725	1395.5181	-362.72092	525.6803	1140.4601	-307.14136	531.91107	1239.1094	-543.88049	90.006012	1255.2333	-505.57727	95.489136	1297.1232
536	2.67	-690.72473	579.79822	1230.1934	-610.12421	523.10718	1200.6237	-607.84839	835.24048	812.19208	-503.85333	786.0675	823.24518	-535.69666	1126.4626	1158.4587	-332.55814	934.48602	1397.3745	-358.34814	526.37299	1138.8313	-307.03372	533.39502	1240.1075	-545.52405	92.739265	1252.687	-506.83319	97.704819	1295.1748
537	2.675	-704.58142	598.28497	1205.4572	-623.91528	539.01105	1180.0608	-588.25311	854.84851	797.93835	-487.04544	801.97461	813.08728	-529.41162	1133.2216	1155.0785	-337.73102	934.07043	1399.4275	-354.75647	527.59314	1138.7479	-306.80997	534.76868	1241.0192	-545.10065	95.001625	1250.0432	-508.11505	99.943336	1292.9866
538	2.68	-718.40021	617.09515	1179.5614	-639.41223	555.29822	1158.603	-567.83521	874.58234	784.54236	-469.49252	817.14484	803.8902	-522.95129	1139.7178	1152.0006	-343.54156	933.33118	1401.4304	-350.9545	528.52075	1138.1687	-306.40671	536.1261	1242.1052	-545.21942	97.364281	1246.5929	-509.4657	102.31104	1290.7167
539	2.685	-732.66949	637.09491	1152.7574	-655.09143	571.93854	1135.3009	-547.81689	894.1178	773.39246	-453.53732	830.87311	796.71942	-517.02856	1145.457	1149.5166	-350.03348	932.33813	1402.8591	-347.11044	529.84003	1137.911	-306.04562	537.66101	1242.8618	-545.88293	99.472206	1242.7104	-510.68884	104.65944	1288.2274
540	2.69	-746.40405	657.51819	1124.0374	-671.16028	588.89764	1110.1805	-526.20569	912.2887	764.24109	-436.93661	844.68066	790.72662	-510.46521	1151.5612	1147.1589	-356.89459	930.88025	1404.1929	-342.31927	530.92938	1136.9938	-305.91522	539.02185	1243.192	-545.41473	102.35577	1240.2479	-511.74707	106.95998	1285.76
541	2.695	-760.0755	678.43848	1094.149	-687.37494	606.48907	1082.7477	-505.15228	930.21783	757.08093	-420.75357	857.41681	785.97284	-504.08929	1156.8638	1145.0785	-364.13611	929.42517	1404.5637	-338.20834	532.13348	1136.6764	-305.71655	540.66852	1243.5771	-545.40051	104.29944	1236.4152	-512.60846	109.13944	1283.1943
542	2.7	-773.13861	700.28052	1062.3944	-703.96564	625.39008	1053.7769	-483.40747	947.03546	751.35889	-404.95715	869.4563	782.47101	-497.5871	1162.2	1143.2843	-372.27536	927.66931	1404.4818	-334.09854	533.48248	1136.4359	-305.74289	542.25989	1243.8257	-544.78845	106.23534	1233.1104	-513.11127	111.11291	1280.5792
543	2.705	-785.76013	723.09595	1028.7867	-719.94049	644.8045	1022.7146	-462.23004	963.12994	747.71228	-389.44659	880.55994	780.1875	-491.65335	1166.567	1142.0046	-380.53873	925.94373	1404.9469	-330.20557	534.70862	1136.2256	-305.84134	544.08704	1244.1792	-544.02686	108.11044	1230.1729	-513.51038	112.92395	1277.9937
544	2.71	-797.7121	746.76331	993.10767	-735.19336	665.22009	989.85645	-441.07468	977.74664	745.37347	-375.45911	890.67596	778.56122	-485.7883	1170.6311	1140.9542	-389.10184	923.97821	1404.8961	-326.79941	535.75543	1136.0037	-306.65833	545.51489	1243.8608	-543.37537	109.49178	1226.9297	-513.75952	114.50514	1275.5576
545	2.715	-807.3465	770.58167	954.92169	-748.56342	686.42175	955.17773	-420.8226	990.70959	744.72656	-362.03836	899.85449	777.7793	-480.12793	1174.2576	1140.1399	-397.9964	921.91565	1404.5057	-323.2941	537.14032	1135.4733	-307.48315	547.20953	1244.0476	-542.85419	110.67625	1224.0111	-513.88159	115.84808	1273.2161
